<svg width="16" height="16" viewBox="0 0 16 16" fill="none" xmlns="http://www.w3.org/2000/svg">
<path fill-rule="evenodd" clip-rule="evenodd" d="M0.666016 5.1086C0.666016 3.02367 2.35619 1.3335 4.44112 1.3335H12.152C14.2369 1.3335 15.9271 3.02367 15.9271 5.1086V14.1046C15.9271 14.4151 15.6753 14.6668 15.3648 14.6668C15.0543 14.6668 14.8026 14.4151 14.8026 14.1046V12.0965H1.79051V14.1046C1.79051 14.4151 1.53879 14.6668 1.22826 14.6668C0.917743 14.6668 0.666016 14.4151 0.666016 14.1046V5.1086ZM1.79051 10.9721H14.8026V9.52627H1.79051V10.9721ZM1.79051 8.40177H3.2363C3.2363 3.06049 13.3568 3.06049 13.3568 8.40177H14.8026V5.1086C14.8026 3.64471 13.6158 2.45799 12.152 2.45799H4.44112C2.97723 2.45799 1.79051 3.64471 1.79051 5.1086V8.40177ZM4.36079 8.40177C4.36079 4.38131 12.2323 5.01149 12.2323 8.40177H4.36079Z" fill="#E0E5EB"/>
</svg>
