<svg width="22" height="22" viewBox="0 0 22 22" fill="none" xmlns="http://www.w3.org/2000/svg">
<path fill-rule="evenodd" clip-rule="evenodd" d="M1.94727 10.9998C1.94727 10.5569 2.30637 10.1978 2.74935 10.1978H19.2493C19.6923 10.1978 20.0514 10.5569 20.0514 10.9998C20.0514 11.4428 19.6923 11.8019 19.2493 11.8019H2.74935C2.30637 11.8019 1.94727 11.4428 1.94727 10.9998Z" fill="#E0E5EB"/>
<path fill-rule="evenodd" clip-rule="evenodd" d="M1.94727 5.49984C1.94727 5.05686 2.30637 4.69775 2.74935 4.69775H19.2493C19.6923 4.69775 20.0514 5.05686 20.0514 5.49984C20.0514 5.94282 19.6923 6.30192 19.2493 6.30192H2.74935C2.30637 6.30192 1.94727 5.94282 1.94727 5.49984Z" fill="#E0E5EB"/>
<path fill-rule="evenodd" clip-rule="evenodd" d="M1.94727 16.4998C1.94727 16.0569 2.30637 15.6978 2.74935 15.6978H19.2493C19.6923 15.6978 20.0514 16.0569 20.0514 16.4998C20.0514 16.9428 19.6923 17.3019 19.2493 17.3019H2.74935C2.30637 17.3019 1.94727 16.9428 1.94727 16.4998Z" fill="#E0E5EB"/>
</svg>
