<svg width="14" height="14" viewBox="0 0 14 14" fill="none" xmlns="http://www.w3.org/2000/svg">
<path fill-rule="evenodd" clip-rule="evenodd" d="M6.99935 4.73975C5.42879 4.73975 4.1556 6.01294 4.1556 7.5835C4.1556 9.15406 5.42879 10.4272 6.99935 10.4272C8.56991 10.4272 9.8431 9.15406 9.8431 7.5835C9.8431 6.01294 8.56991 4.73975 6.99935 4.73975ZM5.17643 7.5835C5.17643 6.57673 5.99258 5.76058 6.99935 5.76058C8.00612 5.76058 8.82227 6.57673 8.82227 7.5835C8.82227 8.59027 8.00612 9.40641 6.99935 9.40641C5.99258 9.40641 5.17643 8.59027 5.17643 7.5835Z" fill="#111827"/>
<path fill-rule="evenodd" clip-rule="evenodd" d="M5.24935 1.23975C5.07869 1.23975 4.91932 1.32504 4.82466 1.46703L3.80952 2.98975H1.74935C1.30456 2.98975 0.877986 3.16644 0.563472 3.48095C0.248958 3.79547 0.0722656 4.22204 0.0722656 4.66683V11.0835C0.0722656 11.5283 0.248958 11.9549 0.563472 12.2694C0.877986 12.5839 1.30456 12.7606 1.74935 12.7606H12.2493C12.6941 12.7606 13.1207 12.5839 13.4352 12.2694C13.7497 11.9549 13.9264 11.5283 13.9264 11.0835V4.66683C13.9264 4.22204 13.7497 3.79547 13.4352 3.48095C13.1207 3.16644 12.6941 2.98975 12.2493 2.98975H10.1892L9.17404 1.46703C9.07938 1.32504 8.92001 1.23975 8.74935 1.23975H5.24935ZM4.50737 3.78329L5.52252 2.26058H8.47618L9.49132 3.78329C9.58599 3.92529 9.74536 4.01058 9.91602 4.01058H12.2493C12.4234 4.01058 12.5903 4.07972 12.7134 4.20279C12.8365 4.32586 12.9056 4.49278 12.9056 4.66683V11.0835C12.9056 11.2575 12.8365 11.4245 12.7134 11.5475C12.5903 11.6706 12.4234 11.7397 12.2493 11.7397H1.74935C1.5753 11.7397 1.40838 11.6706 1.28531 11.5475C1.16224 11.4245 1.0931 11.2575 1.0931 11.0835V4.66683C1.0931 4.49278 1.16224 4.32586 1.28531 4.20279C1.40838 4.07972 1.5753 4.01058 1.74935 4.01058H4.08268C4.25334 4.01058 4.41271 3.92529 4.50737 3.78329Z" fill="#111827"/>
</svg>
