<svg width="16" height="16" viewBox="0 0 16 16" fill="none" xmlns="http://www.w3.org/2000/svg">
<g clip-path="url(#clip0_5411_4777)">
<path d="M15.2659 4.60827C15.2295 4.67986 15.1793 4.74358 15.1183 4.79576C15.0572 4.84794 14.9864 4.88757 14.91 4.91238C14.8336 4.93719 14.7531 4.94669 14.673 4.94034C14.593 4.93399 14.5149 4.91192 14.4434 4.87538L9.07006 2.13028C8.73492 1.96803 8.36729 1.88411 7.99496 1.88485C7.62263 1.88559 7.25534 1.97098 6.92084 2.13456L1.55544 4.87293C1.41103 4.9467 1.24324 4.96006 1.08899 4.91008C0.934733 4.8601 0.806645 4.75087 0.732902 4.60643C0.659159 4.46199 0.645802 4.29416 0.695769 4.13987C0.745735 3.98558 0.854933 3.85746 0.999339 3.7837L6.3733 1.0441C6.87807 0.796394 7.43272 0.667249 7.99496 0.666507C8.5572 0.665766 9.11218 0.793447 9.6176 1.03982L14.9995 3.78614C15.1438 3.85985 15.2529 3.98786 15.3029 4.14203C15.3529 4.29619 15.3396 4.4639 15.2659 4.60827ZM14.158 8.68282C14.5268 9.32977 14.721 10.0616 14.7215 10.8063V11.6657C14.7213 12.0948 14.6083 12.5163 14.3938 12.8878C14.1793 13.2594 13.8708 13.5679 13.4993 13.7824V14.1107C13.4993 14.4349 13.3705 14.7458 13.1413 14.9751C12.9121 15.2044 12.6012 15.3332 12.2771 15.3332C11.9529 15.3332 11.6421 15.2044 11.4129 14.9751C11.1837 14.7458 11.0549 14.4349 11.0549 14.1107H4.94395C4.94395 14.4349 4.81519 14.7458 4.58598 14.9751C4.35678 15.2044 4.04591 15.3332 3.72176 15.3332C3.39762 15.3332 3.08675 15.2044 2.85755 14.9751C2.62834 14.7458 2.49958 14.4349 2.49958 14.1107V13.7824C2.12808 13.5679 1.81957 13.2594 1.60504 12.8878C1.39051 12.5163 1.27751 12.0948 1.27739 11.6657V10.8063C1.27784 10.0616 1.47201 9.32977 1.84082 8.68282L3.09845 6.48234C3.36625 6.01503 3.75248 5.62658 4.21821 5.35616C4.68393 5.08573 5.2127 4.94288 5.75121 4.94201H10.2476C10.7862 4.94288 11.3149 5.08573 11.7806 5.35616C12.2464 5.62658 12.6326 6.01503 12.9004 6.48234L14.158 8.68282ZM2.9414 9.22072H13.0575L11.8395 7.0887C11.6788 6.80832 11.447 6.57527 11.1675 6.41302C10.8881 6.25077 10.5708 6.16505 10.2476 6.16449H5.75121C5.42859 6.16559 5.11195 6.25156 4.83306 6.41379C4.55417 6.57601 4.32287 6.80877 4.16236 7.0887L2.9414 9.22072ZM13.4993 10.8063C13.499 10.6849 13.4916 10.5637 13.4773 10.4432H12.2771V11.0545C12.2771 11.2166 12.2127 11.372 12.0981 11.4867C11.9835 11.6013 11.8281 11.6657 11.666 11.6657C11.5039 11.6657 11.3485 11.6013 11.2339 11.4867C11.1193 11.372 11.0549 11.2166 11.0549 11.0545V10.4432H4.94395V11.0545C4.94395 11.2166 4.87957 11.372 4.76497 11.4867C4.65037 11.6013 4.49493 11.6657 4.33286 11.6657C4.17079 11.6657 4.01535 11.6013 3.90075 11.4867C3.78615 11.372 3.72176 11.2166 3.72176 11.0545V10.4432H2.52158C2.50721 10.5637 2.49986 10.6849 2.49958 10.8063V11.6657C2.49958 11.9899 2.62834 12.3009 2.85755 12.5301C3.08675 12.7594 3.39762 12.8882 3.72176 12.8882H12.2771C12.6012 12.8882 12.9121 12.7594 13.1413 12.5301C13.3705 12.3009 13.4993 11.9899 13.4993 11.6657V10.8063Z" fill="#E0E5EB"/>
</g>
<defs>
<clipPath id="clip0_5411_4777">
<rect width="16" height="16" fill="white"/>
</clipPath>
</defs>
</svg>
