<svg width="24" height="24" viewBox="0 0 24 24" fill="none" xmlns="http://www.w3.org/2000/svg">
<path fill-rule="evenodd" clip-rule="evenodd" d="M18.6187 5.38128C18.9604 5.72299 18.9604 6.27701 18.6187 6.61872L6.61872 18.6187C6.27701 18.9604 5.72299 18.9604 5.38128 18.6187C5.03957 18.277 5.03957 17.723 5.38128 17.3813L17.3813 5.38128C17.723 5.03957 18.277 5.03957 18.6187 5.38128Z" fill="white"/>
<path fill-rule="evenodd" clip-rule="evenodd" d="M5.38128 5.38128C5.72299 5.03957 6.27701 5.03957 6.61872 5.38128L18.6187 17.3813C18.9604 17.723 18.9604 18.277 18.6187 18.6187C18.277 18.9604 17.723 18.9604 17.3813 18.6187L5.38128 6.61872C5.03957 6.27701 5.03957 5.72299 5.38128 5.38128Z" fill="white"/>
</svg>
