<svg width="16" height="16" viewBox="0 0 16 16" fill="none" xmlns="http://www.w3.org/2000/svg">
<path fill-rule="evenodd" clip-rule="evenodd" d="M2.66732 8.74984C2.98948 8.74984 3.25065 9.011 3.25065 9.33317V13.9998C3.25065 14.322 2.98948 14.5832 2.66732 14.5832C2.34515 14.5832 2.08398 14.322 2.08398 13.9998V9.33317C2.08398 9.011 2.34515 8.74984 2.66732 8.74984Z" fill="#111827"/>
<path fill-rule="evenodd" clip-rule="evenodd" d="M2.66732 1.4165C2.98948 1.4165 3.25065 1.67767 3.25065 1.99984V6.6665C3.25065 6.98867 2.98948 7.24984 2.66732 7.24984C2.34515 7.24984 2.08398 6.98867 2.08398 6.6665V1.99984C2.08398 1.67767 2.34515 1.4165 2.66732 1.4165Z" fill="#111827"/>
<path fill-rule="evenodd" clip-rule="evenodd" d="M8.00065 7.4165C8.32282 7.4165 8.58398 7.67767 8.58398 7.99984V13.9998C8.58398 14.322 8.32282 14.5832 8.00065 14.5832C7.67849 14.5832 7.41732 14.322 7.41732 13.9998V7.99984C7.41732 7.67767 7.67849 7.4165 8.00065 7.4165Z" fill="#111827"/>
<path fill-rule="evenodd" clip-rule="evenodd" d="M8.00065 1.4165C8.32282 1.4165 8.58398 1.67767 8.58398 1.99984V5.33317C8.58398 5.65534 8.32282 5.9165 8.00065 5.9165C7.67849 5.9165 7.41732 5.65534 7.41732 5.33317V1.99984C7.41732 1.67767 7.67849 1.4165 8.00065 1.4165Z" fill="#111827"/>
<path fill-rule="evenodd" clip-rule="evenodd" d="M13.334 10.0832C13.6562 10.0832 13.9173 10.3443 13.9173 10.6665V13.9998C13.9173 14.322 13.6562 14.5832 13.334 14.5832C13.0118 14.5832 12.7507 14.322 12.7507 13.9998V10.6665C12.7507 10.3443 13.0118 10.0832 13.334 10.0832Z" fill="#111827"/>
<path fill-rule="evenodd" clip-rule="evenodd" d="M13.334 1.4165C13.6562 1.4165 13.9173 1.67767 13.9173 1.99984V7.99984C13.9173 8.322 13.6562 8.58317 13.334 8.58317C13.0118 8.58317 12.7507 8.322 12.7507 7.99984V1.99984C12.7507 1.67767 13.0118 1.4165 13.334 1.4165Z" fill="#111827"/>
<path fill-rule="evenodd" clip-rule="evenodd" d="M0.0839844 9.33317C0.0839844 9.011 0.345152 8.74984 0.667318 8.74984H4.66732C4.98948 8.74984 5.25065 9.011 5.25065 9.33317C5.25065 9.65534 4.98948 9.9165 4.66732 9.9165H0.667318C0.345152 9.9165 0.0839844 9.65534 0.0839844 9.33317Z" fill="#111827"/>
<path fill-rule="evenodd" clip-rule="evenodd" d="M5.41732 5.33317C5.41732 5.011 5.67849 4.74984 6.00065 4.74984H10.0007C10.3228 4.74984 10.584 5.011 10.584 5.33317C10.584 5.65534 10.3228 5.9165 10.0007 5.9165H6.00065C5.67849 5.9165 5.41732 5.65534 5.41732 5.33317Z" fill="#111827"/>
<path fill-rule="evenodd" clip-rule="evenodd" d="M10.7507 10.6665C10.7507 10.3443 11.0118 10.0832 11.334 10.0832H15.334C15.6562 10.0832 15.9173 10.3443 15.9173 10.6665C15.9173 10.9887 15.6562 11.2498 15.334 11.2498H11.334C11.0118 11.2498 10.7507 10.9887 10.7507 10.6665Z" fill="#111827"/>
</svg>
