<svg width="24" height="24" viewBox="0 0 24 24" fill="none" xmlns="http://www.w3.org/2000/svg">
<path d="M16.9501 1.99817C16.0963 1.99817 15.2508 2.1664 14.462 2.49324C13.6732 2.82006 12.9564 3.29923 12.3528 3.90305L12.0001 4.25578L11.6472 3.90289C10.428 2.68366 8.77437 1.9987 7.05012 1.9987C5.32587 1.9987 3.67224 2.68366 2.45301 3.90289C1.23378 5.12212 0.548828 6.77574 0.548828 8.49999C0.548828 10.2242 1.23378 11.8779 2.45301 13.0971L11.293 21.9371C11.6835 22.3276 12.3167 22.3276 12.7072 21.9371L21.5472 13.0971C22.1511 12.4935 22.6301 11.7769 22.9569 10.9881C23.2837 10.1993 23.4519 9.35384 23.4519 8.49999C23.4519 7.64614 23.2837 6.80066 22.9569 6.01185C22.6301 5.22318 22.1508 4.50627 21.5471 3.90272C20.9435 3.29897 20.2269 2.82003 19.4383 2.49324C18.6495 2.1664 17.804 1.99817 16.9501 1.99817Z" fill="#D85151"/>
</svg>
