<svg width="24" height="24" viewBox="0 0 24 24" fill="none" xmlns="http://www.w3.org/2000/svg">
<path fill-rule="evenodd" clip-rule="evenodd" d="M14.836 2.48555C15.6096 2.16499 16.4389 2 17.2763 2C18.1137 2 18.9429 2.16499 19.7166 2.48555C20.4902 2.80612 21.1931 3.27596 21.7852 3.86825C22.3773 4.4602 22.8471 5.16301 23.1676 5.93653C23.4881 6.71017 23.6531 7.5394 23.6531 8.37683C23.6531 9.21426 23.4881 10.0435 23.1676 10.8171C22.847 11.5907 22.3772 12.2936 21.785 12.8855C21.785 12.8856 21.7851 12.8855 21.785 12.8855L12.945 21.7255C12.6033 22.0673 12.0493 22.0673 11.7076 21.7255L2.86757 12.8855C1.67179 11.6898 1 10.0679 1 8.37683C1 6.68573 1.67179 5.06389 2.86757 3.86811C4.06336 2.67232 5.68519 2.00053 7.37629 2.00053C9.06739 2.00053 10.6892 2.67232 11.885 3.86811L12.3263 4.30939L12.7674 3.86825C13.3594 3.27596 14.0623 2.80612 14.836 2.48555ZM20.5474 5.1054C20.1179 4.6757 19.608 4.33483 19.0467 4.10226C18.4854 3.8697 17.8838 3.75 17.2763 3.75C16.6687 3.75 16.0672 3.8697 15.5059 4.10226C14.9446 4.33483 14.4347 4.6757 14.0052 5.1054L12.945 6.16554C12.6033 6.50725 12.0493 6.50725 11.7076 6.16554L10.6476 5.10554C9.77997 4.23795 8.60326 3.75053 7.37629 3.75053C6.14932 3.75053 4.97261 4.23795 4.10501 5.10554C3.23741 5.97314 2.75 7.14986 2.75 8.37683C2.75 9.60379 3.23741 10.7805 4.10501 11.6481L12.3263 19.8694L20.5476 11.6481C20.9773 11.2186 21.3183 10.7085 21.5508 10.1472C21.7834 9.58596 21.9031 8.98437 21.9031 8.37683C21.9031 7.76928 21.7834 7.16769 21.5508 6.60641C21.3183 6.04514 20.9771 5.5349 20.5474 5.1054Z" fill="#1D2735"/>
</svg>
