<svg width="24" height="24" viewBox="0 0 24 24" fill="none" xmlns="http://www.w3.org/2000/svg">
<path fill-rule="evenodd" clip-rule="evenodd" d="M11 3.875C7.06497 3.875 3.875 7.06497 3.875 11C3.875 14.935 7.06497 18.125 11 18.125C14.935 18.125 18.125 14.935 18.125 11C18.125 7.06497 14.935 3.875 11 3.875ZM2.125 11C2.125 6.09847 6.09847 2.125 11 2.125C15.9015 2.125 19.875 6.09847 19.875 11C19.875 15.9015 15.9015 19.875 11 19.875C6.09847 19.875 2.125 15.9015 2.125 11Z" fill="white"/>
<path fill-rule="evenodd" clip-rule="evenodd" d="M16.0313 16.0313C16.373 15.6896 16.927 15.6896 17.2687 16.0313L21.6187 20.3813C21.9604 20.723 21.9604 21.277 21.6187 21.6187C21.277 21.9604 20.723 21.9604 20.3813 21.6187L16.0313 17.2687C15.6896 16.927 15.6896 16.373 16.0313 16.0313Z" fill="white"/>
<path fill-rule="evenodd" clip-rule="evenodd" d="M11 7.125C11.4832 7.125 11.875 7.51675 11.875 8V14C11.875 14.4832 11.4832 14.875 11 14.875C10.5168 14.875 10.125 14.4832 10.125 14V8C10.125 7.51675 10.5168 7.125 11 7.125Z" fill="white"/>
<path fill-rule="evenodd" clip-rule="evenodd" d="M7.125 11C7.125 10.5168 7.51675 10.125 8 10.125H14C14.4832 10.125 14.875 10.5168 14.875 11C14.875 11.4832 14.4832 11.875 14 11.875H8C7.51675 11.875 7.125 11.4832 7.125 11Z" fill="white"/>
</svg>
