<svg width="16" height="16" viewBox="0 0 16 16" fill="none" xmlns="http://www.w3.org/2000/svg">
<path fill-rule="evenodd" clip-rule="evenodd" d="M2.66672 3.25016C2.25555 3.25016 1.91672 3.589 1.91672 4.00016V12.0002C1.91672 12.4113 2.25555 12.7502 2.66672 12.7502H13.3334C13.7446 12.7502 14.0834 12.4113 14.0834 12.0002V4.00016C14.0834 3.589 13.7446 3.25016 13.3334 3.25016H2.66672ZM0.75005 4.00016C0.75005 2.94466 1.61122 2.0835 2.66672 2.0835H13.3334C14.3889 2.0835 15.25 2.94466 15.25 4.00016V12.0002C15.25 13.0557 14.3889 13.9168 13.3334 13.9168H2.66672C1.61122 13.9168 0.75005 13.0557 0.75005 12.0002V4.00016Z" fill="#CAD0D9"/>
<path fill-rule="evenodd" clip-rule="evenodd" d="M0.855498 3.66564C1.04025 3.40171 1.40397 3.33753 1.6679 3.52228L8.00005 7.95478L14.3322 3.52228C14.5961 3.33753 14.9599 3.40171 15.1446 3.66564C15.3294 3.92957 15.2652 4.2933 15.0012 4.47805L8.33457 9.14471C8.13372 9.28531 7.86638 9.28531 7.66553 9.14471L0.998864 4.47805C0.734935 4.2933 0.670748 3.92957 0.855498 3.66564Z" fill="#CAD0D9"/>
</svg>
