<svg width="16" height="16" viewBox="0 0 16 16" fill="none" xmlns="http://www.w3.org/2000/svg">
<path fill-rule="evenodd" clip-rule="evenodd" d="M7.99935 1.25016C6.56276 1.25016 5.18501 1.82085 4.16919 2.83667C3.15336 3.85249 2.58268 5.23024 2.58268 6.66683C2.58268 8.7657 3.94603 10.7901 5.42282 12.349C6.14929 13.1158 6.87774 13.7433 7.42522 14.1792C7.65333 14.3609 7.8492 14.5086 7.99935 14.6187C8.1495 14.5086 8.34537 14.3609 8.57347 14.1792C9.12096 13.7433 9.84941 13.1158 10.5759 12.349C12.0527 10.7901 13.416 8.7657 13.416 6.66683C13.416 5.23024 12.8453 3.85249 11.8295 2.83667C10.8137 1.82085 9.43594 1.25016 7.99935 1.25016ZM7.99935 15.3335C7.67577 15.8189 7.67545 15.8186 7.67545 15.8186L7.67365 15.8174L7.66936 15.8146L7.65438 15.8044C7.64161 15.7958 7.6233 15.7832 7.59983 15.767C7.55291 15.7345 7.48531 15.687 7.4 15.6254C7.22943 15.5022 6.98769 15.3222 6.69847 15.0919C6.12096 14.632 5.34941 13.9679 4.57588 13.1513C3.05267 11.5435 1.41602 9.23463 1.41602 6.66683C1.41602 4.92082 2.10961 3.24632 3.34423 2.01171C4.57884 0.777095 6.25334 0.0834961 7.99935 0.0834961C9.74536 0.0834961 11.4199 0.777095 12.6545 2.01171C13.8891 3.24632 14.5827 4.92082 14.5827 6.66683C14.5827 9.23463 12.946 11.5435 11.4228 13.1513C10.6493 13.9679 9.87774 14.632 9.30022 15.0919C9.011 15.3222 8.76926 15.5022 8.5987 15.6254C8.51338 15.687 8.44579 15.7345 8.39886 15.767C8.3754 15.7832 8.35709 15.7958 8.34431 15.8044L8.32934 15.8146L8.32504 15.8174L8.32371 15.8183C8.32371 15.8183 8.32292 15.8189 7.99935 15.3335ZM7.99935 15.3335L8.32292 15.8189C8.12698 15.9495 7.87139 15.9493 7.67545 15.8186L7.99935 15.3335Z" fill="#CAD0D9"/>
<path fill-rule="evenodd" clip-rule="evenodd" d="M7.99935 5.25016C7.21695 5.25016 6.58268 5.88443 6.58268 6.66683C6.58268 7.44923 7.21695 8.0835 7.99935 8.0835C8.78175 8.0835 9.41602 7.44923 9.41602 6.66683C9.41602 5.88443 8.78175 5.25016 7.99935 5.25016ZM5.41602 6.66683C5.41602 5.24009 6.57261 4.0835 7.99935 4.0835C9.42608 4.0835 10.5827 5.24009 10.5827 6.66683C10.5827 8.09357 9.42608 9.25016 7.99935 9.25016C6.57261 9.25016 5.41602 8.09357 5.41602 6.66683Z" fill="#CAD0D9"/>
</svg>
