<svg width="16" height="16" viewBox="0 0 16 16" fill="none" xmlns="http://www.w3.org/2000/svg">
<g clip-path="url(#clip0_3515_17583)">
<path fill-rule="evenodd" clip-rule="evenodd" d="M2.51571 1.90775C2.47862 1.92104 2.43271 1.9375 2.3842 1.95367C2.33291 1.97076 2.28929 2.00234 2.14555 2.14608C2.09993 2.19171 2.07074 2.23195 2.01981 2.38473C2.01292 2.40541 2.00487 2.42568 1.99572 2.44545C1.99438 2.45191 1.9915 2.46737 1.98901 2.49475C1.9842 2.54773 1.98326 2.60994 1.9831 2.69599C2.2434 4.67568 2.88316 6.57564 3.95464 8.21437L3.96108 8.22443C4.91413 9.74932 6.25069 11.0859 7.77558 12.0389L7.78564 12.0454C9.44069 13.1275 11.2753 13.823 13.228 14.0169C13.3996 14.0166 13.4504 14.0129 13.5486 13.9802C13.7014 13.9293 13.7416 13.9001 13.7872 13.8544C13.931 13.7107 13.9626 13.6671 13.9797 13.6158C13.9884 13.5896 13.999 13.5641 14.0113 13.5394C14.0283 13.5055 14.0475 13.458 14.062 13.4051C14.0765 13.3517 14.0831 13.3042 14.0831 13.2669V11.2669C14.0831 11.1106 14.0311 10.9677 13.8505 10.6632C13.7645 10.5578 13.6492 10.4882 13.4408 10.4435C12.7821 10.3666 12.0761 10.1517 11.4819 9.95367C11.4425 9.94051 11.4046 9.92318 11.3688 9.90199C11.36 9.90115 11.3458 9.90027 11.3247 9.90027C11.2842 9.90027 11.2389 9.90299 11.169 9.90743L11.1652 9.90767C11.1025 9.91165 11.0194 9.91693 10.9331 9.91693C10.9044 9.91693 10.8821 9.92229 10.8513 9.93887C10.813 9.9595 10.7588 9.99944 10.6789 10.0794L9.81222 10.9461C9.62754 11.1308 9.3426 11.1702 9.11472 11.0426C7.35419 10.0567 5.87668 8.57916 4.89078 6.81862C4.76317 6.59074 4.80258 6.30581 4.98726 6.12112L5.81269 5.29568C5.9306 5.11718 5.99796 5.00221 6.03382 4.85879C6.05681 4.76682 6.04663 4.72612 5.9746 4.4382C5.97393 4.43554 5.97327 4.43287 5.97259 4.43017L5.97204 4.42851C5.78077 3.8548 5.56837 3.21769 5.49083 2.50484C5.46614 2.41471 5.43367 2.32592 5.39253 2.2482C5.34567 2.15969 5.29624 2.10181 5.24973 2.06693C5.22765 2.05037 5.20677 2.03226 5.18725 2.01274C5.10929 1.93477 4.93054 1.85026 4.73308 1.85026H2.73308C2.70411 1.85026 2.67858 1.85396 2.63403 1.86733C2.608 1.87514 2.57863 1.88526 2.53552 1.90066C2.52925 1.9029 2.52263 1.90527 2.51571 1.90775ZM2.08482 0.821946C2.22577 0.770064 2.46068 0.683594 2.73308 0.683594H4.73308C5.18801 0.683594 5.66052 0.854837 5.98237 1.15879C6.38882 1.48155 6.55774 1.96043 6.63232 2.25879C6.63918 2.28621 6.64403 2.3141 6.64685 2.34222C6.70606 2.93433 6.88381 3.47452 7.08646 4.08246C7.09118 4.09662 7.09536 4.11096 7.09898 4.12545C7.10473 4.14847 7.11124 4.17306 7.11813 4.19915C7.17664 4.42048 7.26367 4.74968 7.16565 5.14174C7.07423 5.50742 6.8926 5.77951 6.76409 5.97203C6.75993 5.97827 6.75581 5.98443 6.75176 5.99051C6.73046 6.02247 6.70604 6.05225 6.67888 6.07941L6.13179 6.6265C6.92859 7.90889 8.02445 9.00474 9.30684 9.80154L9.85392 9.25445C10.0958 9.01258 10.437 8.75026 10.9331 8.75026C10.9784 8.75026 11.027 8.74743 11.0951 8.7431L11.1039 8.74254C11.1644 8.73869 11.2443 8.7336 11.3247 8.7336C11.4736 8.7336 11.6919 8.74921 11.9088 8.86609C12.488 9.05763 13.0813 9.22981 13.5975 9.28717C13.6142 9.28903 13.6309 9.29162 13.6475 9.29493C14.0781 9.38105 14.4903 9.57102 14.7997 9.9836C14.8118 9.99964 14.823 10.0163 14.8333 10.0335C15.0383 10.3753 15.2497 10.7615 15.2497 11.2669V13.2669C15.2497 13.5636 15.1608 13.8375 15.0722 14.0254C14.9575 14.3355 14.751 14.5412 14.6296 14.6621C14.6236 14.6681 14.6178 14.6738 14.6122 14.6794C14.3912 14.9004 14.1648 15.0046 13.9175 15.087C13.6274 15.1837 13.4146 15.1836 13.2132 15.1836L13.1997 15.1836C13.181 15.1836 13.1622 15.1827 13.1435 15.1809C10.9754 14.9711 8.95467 14.2026 7.15219 13.0251C5.48088 11.9794 4.0206 10.5192 2.97492 8.84784C1.78841 7.0313 1.09712 4.94661 0.821205 2.80825C0.818011 2.7835 0.816409 2.75856 0.816409 2.7336C0.816409 2.73018 0.816408 2.72671 0.816407 2.72319C0.816392 2.63036 0.816371 2.50757 0.82714 2.38912C0.836986 2.28083 0.858861 2.13218 0.923814 1.9839C1.00463 1.74905 1.1091 1.53262 1.3206 1.32112C1.32617 1.31555 1.33194 1.30975 1.33793 1.30374C1.464 1.17713 1.68235 0.957841 2.01526 0.84687C2.03483 0.840349 2.05814 0.831767 2.08482 0.821946Z" fill="#CAD0D9"/>
</g>
<defs>
<clipPath id="clip0_3515_17583">
<rect width="16" height="16" fill="white"/>
</clipPath>
</defs>
</svg>
