<svg width="16" height="16" viewBox="0 0 16 16" fill="none" xmlns="http://www.w3.org/2000/svg">
<path d="M11.8884 8.27844C11.8884 8.73836 11.5151 9.11163 11.0552 9.11163C10.5952 9.11163 10.222 8.73836 10.222 8.27844C10.222 7.81851 10.5952 7.44524 11.0552 7.44524C11.5151 7.44524 11.8884 7.81851 11.8884 8.27844ZM13.8325 6.33431C14.2924 6.33431 14.6657 5.96104 14.6657 5.50112C14.6657 5.04119 14.2924 4.66792 13.8325 4.66792C13.3726 4.66792 12.9993 5.04119 12.9993 5.50112C12.9993 5.96104 13.3726 6.33431 13.8325 6.33431ZM11.0552 10.2226C10.5952 10.2226 10.222 10.5958 10.222 11.0558C10.222 11.5157 10.5952 11.889 11.0552 11.889C11.5151 11.889 11.8884 11.5157 11.8884 11.0558C11.8884 10.5958 11.5151 10.2226 11.0552 10.2226ZM13.8325 7.44524C13.3726 7.44524 12.9993 7.81851 12.9993 8.27844C12.9993 8.73836 13.3726 9.11163 13.8325 9.11163C14.2924 9.11163 14.6657 8.73836 14.6657 8.27844C14.6657 7.81851 14.2924 7.44524 13.8325 7.44524ZM13.8325 10.2226C13.3726 10.2226 12.9993 10.5958 12.9993 11.0558C12.9993 11.5157 13.3726 11.889 13.8325 11.889C14.2924 11.889 14.6657 11.5157 14.6657 11.0558C14.6657 10.5958 14.2924 10.2226 13.8325 10.2226ZM13.8325 12.9999C13.3726 12.9999 12.9993 13.3732 12.9993 13.8331C12.9993 14.293 13.3726 14.6663 13.8325 14.6663C14.2924 14.6663 14.6657 14.293 14.6657 13.8331C14.6657 13.3732 14.2924 12.9999 13.8325 12.9999ZM11.0552 12.9999C10.5952 12.9999 10.222 13.3732 10.222 13.8331C10.222 14.293 10.5952 14.6663 11.0552 14.6663C11.5151 14.6663 11.8884 14.293 11.8884 13.8331C11.8884 13.3732 11.5151 12.9999 11.0552 12.9999ZM8.27784 10.2226C7.81792 10.2226 7.44465 10.5958 7.44465 11.0558C7.44465 11.5157 7.81792 11.889 8.27784 11.889C8.73777 11.889 9.11104 11.5157 9.11104 11.0558C9.11104 10.5958 8.73777 10.2226 8.27784 10.2226ZM8.27784 12.9999C7.81792 12.9999 7.44465 13.3732 7.44465 13.8331C7.44465 14.293 7.81792 14.6663 8.27784 14.6663C8.73777 14.6663 9.11104 14.293 9.11104 13.8331C9.11104 13.3732 8.73777 12.9999 8.27784 12.9999ZM12.3966 2.78156C12.5355 3.36313 12.3672 3.96137 11.9456 4.38297L7.7146 8.61394C7.39077 8.93777 6.96195 9.11219 6.51647 9.11219C6.3826 9.11219 6.24818 9.09664 6.11375 9.06442C5.54051 8.92722 5.08948 8.5134 4.90729 7.95682C4.80286 7.63521 4.73676 7.30082 4.71176 6.96421C4.57901 5.17339 4.73731 3.83417 5.17446 2.95598C4.88396 2.75601 4.30905 2.44662 3.50974 2.44662C2.92261 2.44662 2.44491 2.92432 2.44491 3.51144V14.1114C2.44491 14.4185 2.19606 14.6668 1.88945 14.6668C1.58283 14.6668 1.33398 14.4185 1.33398 14.1114V3.51089C1.33454 2.31108 2.31049 1.33513 3.51029 1.33513C4.65011 1.33513 5.47053 1.80117 5.87713 2.09445C6.71754 1.46678 8.19785 1.22293 10.2958 1.37957C10.6336 1.40457 10.9674 1.47011 11.289 1.57565C11.845 1.75729 12.2594 2.20832 12.3966 2.78156ZM11.3162 3.03985C11.294 2.94654 11.2129 2.71935 10.9441 2.63159C10.708 2.55438 10.4625 2.50605 10.2147 2.48772C9.83703 2.45995 9.47987 2.44606 9.14548 2.44606C7.80181 2.44606 6.83086 2.66825 6.41537 3.08318C5.89657 3.60198 5.67994 4.98676 5.81991 6.88256C5.83824 7.12974 5.88712 7.37636 5.96378 7.61243C6.05154 7.88017 6.27873 7.96182 6.37205 7.98404C6.5759 8.03403 6.78364 7.97404 6.92918 7.82851L11.1601 3.59754C11.3062 3.45145 11.3651 3.2426 11.3162 3.03985Z" fill="#E0E5EB"/>
</svg>
