<svg width="116" height="34" viewBox="0 0 116 34" fill="none" xmlns="http://www.w3.org/2000/svg">
<g clip-path="url(#clip0_12_20)">
<path d="M34 16.8937V27.625C34 31.1313 31.1313 34 27.625 34H17C16.6812 34 16.4688 34 16.15 34C7.225 33.575 0 26.1375 0 17C0 7.65 7.65 0 17 0C26.35 0 34 7.54375 34 16.8937Z" fill="#D85151"/>
<path fill-rule="evenodd" clip-rule="evenodd" d="M17 13.2577C13.8995 13.2577 11.3452 15.812 11.3452 18.9125C11.3452 22.013 13.8995 24.5673 17 24.5673C20.1005 24.5673 22.6548 22.013 22.6548 18.9125C22.6548 15.812 20.1005 13.2577 17 13.2577ZM7.56734 18.9125C7.56734 13.7255 11.813 9.47984 17 9.47984C22.187 9.47984 26.4327 13.7255 26.4327 18.9125C26.4327 20.8269 25.8543 22.6131 24.8638 24.1049L27.2607 26.5018C27.9983 27.2395 27.9983 28.4355 27.2607 29.1732C26.523 29.9108 25.327 29.9108 24.5893 29.1732L22.1924 26.7763C20.7006 27.7668 18.9144 28.3452 17 28.3452C11.813 28.3452 7.56734 24.0995 7.56734 18.9125Z" fill="black" fill-opacity="0.05"/>
<path fill-rule="evenodd" clip-rule="evenodd" d="M16.8936 10.1528C13.1707 10.1528 10.1527 13.1708 10.1527 16.8938C10.1527 20.6167 13.1707 23.6347 16.8936 23.6347C20.6166 23.6347 23.6346 20.6167 23.6346 16.8938C23.6346 13.1708 20.6166 10.1528 16.8936 10.1528ZM6.84711 16.8938C6.84711 11.3452 11.3451 6.84724 16.8936 6.84724C22.4422 6.84724 26.9401 11.3452 26.9401 16.8938C26.9401 22.4423 22.4422 26.9403 16.8936 26.9403C11.3451 26.9403 6.84711 22.4423 6.84711 16.8938Z" fill="white"/>
<path fill-rule="evenodd" clip-rule="evenodd" d="M22.525 22.5251C23.1704 21.8797 24.2169 21.8797 24.8624 22.5251L28.0499 25.7126C28.6953 26.3581 28.6953 27.4045 28.0499 28.05C27.4044 28.6954 26.3579 28.6954 25.7125 28.05L22.525 24.8625C21.8795 24.217 21.8795 23.1706 22.525 22.5251Z" fill="white"/>
<path d="M23.1624 14.6625C25.2749 14.6625 26.9874 12.95 26.9874 10.8375C26.9874 8.72498 25.2749 7.01247 23.1624 7.01247C21.05 7.01247 19.3374 8.72498 19.3374 10.8375C19.3374 12.95 21.05 14.6625 23.1624 14.6625Z" fill="white"/>
<path fill-rule="evenodd" clip-rule="evenodd" d="M23.1626 8.42913C21.8325 8.42913 20.7542 9.50737 20.7542 10.8374C20.7542 12.1675 21.8325 13.2458 23.1626 13.2458C24.4926 13.2458 25.5709 12.1675 25.5709 10.8374C25.5709 9.50737 24.4926 8.42913 23.1626 8.42913ZM17.9209 10.8374C17.9209 7.94255 20.2676 5.59576 23.1626 5.59576C26.0575 5.59576 28.4042 7.94255 28.4042 10.8374C28.4042 13.7324 26.0575 16.0791 23.1626 16.0791C20.2676 16.0791 17.9209 13.7323 17.9209 10.8374Z" fill="#D85151"/>
</g>
<path d="M43.7216 26V8.54545H54.9034V11.196H46.8835V15.9347H54.1364V18.5852H46.8835V26H43.7216ZM57.6477 26V12.9091H60.733V26H57.6477ZM59.1989 11.0511C58.7102 11.0511 58.2898 10.8892 57.9375 10.5653C57.5852 10.2358 57.4091 9.84091 57.4091 9.38068C57.4091 8.91477 57.5852 8.51989 57.9375 8.19602C58.2898 7.86648 58.7102 7.7017 59.1989 7.7017C59.6932 7.7017 60.1136 7.86648 60.4602 8.19602C60.8125 8.51989 60.9886 8.91477 60.9886 9.38068C60.9886 9.84091 60.8125 10.2358 60.4602 10.5653C60.1136 10.8892 59.6932 11.0511 59.1989 11.0511ZM66.9908 18.3295V26H63.9055V12.9091H66.8544V15.1335H67.0078C67.3089 14.4006 67.7891 13.8182 68.4482 13.3864C69.1129 12.9545 69.9339 12.7386 70.9112 12.7386C71.8146 12.7386 72.6016 12.9318 73.272 13.3182C73.9482 13.7045 74.4709 14.2642 74.8402 14.9972C75.2152 15.7301 75.3999 16.6193 75.3942 17.6648V26H72.3089V18.142C72.3089 17.267 72.0817 16.5824 71.6271 16.0881C71.1783 15.5937 70.5561 15.3466 69.7607 15.3466C69.2209 15.3466 68.7408 15.4659 68.3203 15.7045C67.9055 15.9375 67.5788 16.2756 67.3402 16.7188C67.1072 17.1619 66.9908 17.6989 66.9908 18.3295ZM83.3885 26.2301C82.3601 26.2301 81.4396 25.9659 80.6271 25.4375C79.8146 24.9091 79.1726 24.142 78.701 23.1364C78.2294 22.1307 77.9936 20.9091 77.9936 19.4716C77.9936 18.017 78.2322 16.7898 78.7095 15.7898C79.1925 14.7841 79.843 14.0256 80.6612 13.5142C81.4794 12.9972 82.3913 12.7386 83.397 12.7386C84.1641 12.7386 84.7947 12.8693 85.2891 13.1307C85.7834 13.3864 86.1754 13.696 86.4652 14.0597C86.755 14.4176 86.9794 14.7557 87.1385 15.0739H87.2663V8.54545H90.3601V26H87.326V23.9375H87.1385C86.9794 24.2557 86.7493 24.5937 86.4482 24.9517C86.147 25.304 85.7493 25.6051 85.255 25.8551C84.7607 26.1051 84.1385 26.2301 83.3885 26.2301ZM84.2493 23.6989C84.9027 23.6989 85.4595 23.5227 85.9197 23.1705C86.38 22.8125 86.7294 22.3153 86.968 21.679C87.2067 21.0426 87.326 20.3011 87.326 19.4545C87.326 18.608 87.2067 17.8722 86.968 17.2472C86.7351 16.6222 86.3885 16.1364 85.9283 15.7898C85.4737 15.4432 84.9141 15.2699 84.2493 15.2699C83.5618 15.2699 82.9879 15.4489 82.5277 15.8068C82.0675 16.1648 81.7209 16.6591 81.4879 17.2898C81.255 17.9205 81.1385 18.642 81.1385 19.4545C81.1385 20.2727 81.255 21.0028 81.4879 21.6449C81.7266 22.2812 82.076 22.7841 82.5362 23.1534C83.0021 23.517 83.5732 23.6989 84.2493 23.6989ZM99.4432 26.2557C98.1307 26.2557 96.9972 25.983 96.0426 25.4375C95.0938 24.8864 94.3636 24.108 93.8523 23.1023C93.3409 22.0909 93.0852 20.9006 93.0852 19.5312C93.0852 18.1847 93.3409 17.0028 93.8523 15.9858C94.3693 14.9631 95.0909 14.1676 96.017 13.5994C96.9432 13.0256 98.0312 12.7386 99.2812 12.7386C100.088 12.7386 100.849 12.8693 101.565 13.1307C102.287 13.3864 102.923 13.7841 103.474 14.3239C104.031 14.8636 104.469 15.5511 104.787 16.3864C105.105 17.2159 105.264 18.2045 105.264 19.3523V20.2983H94.5341V18.2188H102.307C102.301 17.6278 102.173 17.1023 101.923 16.642C101.673 16.1761 101.324 15.8097 100.875 15.5426C100.432 15.2756 99.9148 15.142 99.3239 15.142C98.6932 15.142 98.1392 15.2955 97.6619 15.6023C97.1847 15.9034 96.8125 16.3011 96.5455 16.7955C96.2841 17.2841 96.1506 17.821 96.1449 18.4062V20.2216C96.1449 20.983 96.2841 21.6364 96.5625 22.1818C96.8409 22.7216 97.2301 23.1364 97.7301 23.4261C98.2301 23.7102 98.8153 23.8523 99.4858 23.8523C99.9347 23.8523 100.341 23.7898 100.705 23.6648C101.068 23.5341 101.384 23.3438 101.651 23.0938C101.918 22.8438 102.119 22.5341 102.256 22.1648L105.136 22.4886C104.955 23.25 104.608 23.9148 104.097 24.483C103.591 25.0455 102.943 25.483 102.153 25.7955C101.364 26.1023 100.46 26.2557 99.4432 26.2557ZM107.874 26V12.9091H110.866V15.0909H111.002C111.241 14.3352 111.65 13.7528 112.229 13.3438C112.815 12.929 113.482 12.7216 114.232 12.7216C114.403 12.7216 114.593 12.7301 114.803 12.7472C115.019 12.7585 115.198 12.7784 115.34 12.8068V15.6449C115.21 15.5994 115.002 15.5597 114.718 15.5256C114.44 15.4858 114.17 15.4659 113.908 15.4659C113.346 15.4659 112.84 15.5881 112.391 15.8324C111.948 16.071 111.599 16.4034 111.343 16.8295C111.087 17.2557 110.96 17.7472 110.96 18.304V26H107.874Z" fill="white"/>
<defs>
<clipPath id="clip0_12_20">
<rect width="34" height="34" fill="white"/>
</clipPath>
</defs>
</svg>
